<svg id="4b01cc6d-a86e-4f39-938e-f5190c67306f" data-name="Layer 1" xmlns="http://www.w3.org/2000/svg" width="200" height="40.9" viewBox="0 0 200 40.9"><g id="ca2b6374-2a49-407c-84b4-5a16270cda8c" data-name="Layer 2"><g id="05418a75-3081-461f-88b7-8e4508d0d9e9" data-name="&lt;Group&gt;"><path id="dd0e313e-390b-493c-8161-c34b33403181" data-name="&lt;Path&gt;" d="M15.8,10.5H10.3c-3.3,0-6.6,2.2-6.6,6.2,0,4.1,3.3,6.2,6.6,6.2h5.5v3.4H9.6a9.6,9.6,0,0,1,0-19.2h6.1v3.4Z" fill="#fff"/><path id="fe6b76ed-8f46-47ae-b14b-1f56638cdc85" data-name="&lt;Compound Path&gt;" d="M27.7,23.3A6.229,6.229,0,0,0,34,16.7c0-3.9-2.6-6.6-6.3-6.6a6.229,6.229,0,0,0-6.3,6.6c.1,3.9,2.7,6.6,6.3,6.6m0-16.6a9.9,9.9,0,0,1,10,10,10,10,0,0,1-20,0,9.961,9.961,0,0,1,10-10" fill="#fff"/><path id="6fcb3441-f069-4d6b-b7b8-c94b79a7fe0c" data-name="&lt;Path&gt;" d="M54.6,25.4a10.991,10.991,0,0,1-4.5,1.3,9.652,9.652,0,0,1-9.9-9.8c0-5.8,3.9-10.2,9.9-10.2a9.338,9.338,0,0,1,9.4,9.5v8.6c0,7.2-4.4,10.6-10,10.6a18.966,18.966,0,0,1-6.3-1.1l.8-3.2a19.824,19.824,0,0,0,5.3,1c3.2,0,6.7-1.4,6.7-6.1V17c0-4.3-2.8-7-6.1-7-4.2,0-6.2,3.3-6.2,7.1a6.038,6.038,0,0,0,6.4,6.2,9.416,9.416,0,0,0,4.5-1.6Z" fill="#fff"/><path id="98bd2223-1b13-43ad-b031-f5a6c4e44094" data-name="&lt;Path&gt;" d="M62.9,26.3V15.1a8.2,8.2,0,1,1,16.4,0V26.3H75.8V15.1a4.769,4.769,0,0,0-4.7-5,4.831,4.831,0,0,0-4.7,5V26.3Z" fill="#fff"/><path id="d2a0b9cc-5752-4db6-bb31-73876e8b7e18" data-name="&lt;Compound Path&gt;" d="M92.2,23.3a6.229,6.229,0,0,0,6.3-6.6c0-3.9-2.6-6.6-6.3-6.6a6.229,6.229,0,0,0-6.3,6.6,6.229,6.229,0,0,0,6.3,6.6m0-16.6a9.9,9.9,0,0,1,10,10,10,10,0,1,1-20,0,9.961,9.961,0,0,1,10-10" fill="#fff"/><path id="e33153bc-4ade-4534-8baf-b61f2fe6b53f" data-name="&lt;Path&gt;" d="M104.5,22.9h9.8c1.6,0,2.3-.6,2.3-1.8,0-3.5-12.1-2.2-12.1-8.8,0-3.4,2.4-5.2,6.6-5.2h8.3v3.4h-8.9c-1.7,0-2.2.5-2.3,1.7,0,3.3,12.1,1.9,12.1,8.8,0,3.6-2.6,5.4-6,5.4h-9.8Z" fill="#f78f20"/><path id="103542e1-0ab4-40a2-9557-75785d29762a" data-name="&lt;Path&gt;" d="M138.2,26.3V15.5c0-3.6-3-5.4-6.2-5.4-3.9,0-6.3,3.1-6.3,6.7a6.344,6.344,0,0,0,6.3,6.6,6.162,6.162,0,0,0,4.8-2.6V25a8.12,8.12,0,0,1-5.2,1.8c-5.5,0-9.4-4.6-9.4-10.2,0-5.5,3.8-9.8,9.9-9.8,5.9,0,9.7,3.6,9.7,9.1V26.4h-3.6Z" fill="#f78f20"/><path id="5393a0e7-6d3e-40e0-b200-89919ff1416b" data-name="&lt;Path&gt;" d="M145.1,26.3V15.1a8.2,8.2,0,1,1,16.4,0V26.3H158V15.1a4.769,4.769,0,0,0-4.7-5,4.831,4.831,0,0,0-4.7,5V26.3Z" fill="#f78f20"/><path id="80393cfc-351e-4aa6-b34d-68c978d4ffd3" data-name="&lt;Path&gt;" d="M176.1,10.5h-6.9V20.6c0,1.8.8,2.4,2.6,2.4H176v3.4h-4.7c-3.6,0-5.7-2.4-5.7-6.2V2.3h3.5V7.1H176v3.4Z" fill="#f78f20"/><path id="8b9f86e1-2341-4359-8f81-13a83e5a0ec2" data-name="&lt;Path&gt;" d="M184.1,20l-1.4-2.8,9.5-5.3a5.313,5.313,0,0,0-4.4-1.8,6.229,6.229,0,0,0-6.3,6.6c0,3.9,2.6,6.6,6.3,6.6,4.2,0,5.7-2.5,6.4-6l3.6.4a9.643,9.643,0,0,1-10,8.9,9.9,9.9,0,0,1-10-10,9.84,9.84,0,0,1,10-10c4.5,0,7.5,2.4,9.3,6.1Z" fill="#f78f20"/><path id="8012b36e-7e7a-40ef-bcee-7b31d300ce14" data-name="&lt;Compound Path&gt;" d="M105.7,34.9Zm0,0a2.478,2.478,0,0,1,2-.9,2.068,2.068,0,0,1,2,1.3,3.244,3.244,0,0,1,2.5-1.3c1,0,2.6.6,2.1,2.9l-.7,4h-.9l.7-3.9a3.158,3.158,0,0,0,0-1.4,1.306,1.306,0,0,0-1.4-.8,2.136,2.136,0,0,0-1.7.8,4.779,4.779,0,0,0-.6,1.4l-.7,3.9h-.8l.7-3.9a3.158,3.158,0,0,0,0-1.4,1.306,1.306,0,0,0-1.4-.8,2,2,0,0,0-1.7.8,4.779,4.779,0,0,0-.6,1.4l-.7,3.9h-.9l1.2-6.7h.9Z" fill="#fff"/><path id="518546e9-834c-436f-975b-164ef5490423" data-name="&lt;Compound Path&gt;" d="M116.8,31.8h.9l-.3,1.5h-.8Zm-.4,2.3h.9l-1.2,6.7h-.9Z" fill="#fff"/><path id="da38e7a7-f9d0-410a-bb6d-6bb15705772e" data-name="&lt;Path&gt;" d="M118.8,34.1h.9l-.2.8h0a2.853,2.853,0,0,1,2.2-1,2.438,2.438,0,0,1,2,.8,2.773,2.773,0,0,1,.4,2.3l-.7,3.7h-.9l.7-3.7a1.914,1.914,0,0,0-.3-1.8,1.7,1.7,0,0,0-1.3-.6,2.462,2.462,0,0,0-1.6.6,3.867,3.867,0,0,0-1,1.8l-.7,3.7h-.8Z" fill="#fff"/><path id="1004572a-8d22-4a58-b165-c01a8bbfe9b5" data-name="&lt;Compound Path&gt;" d="M128.4,40.2a3.5,3.5,0,0,0,3.2-2.7,2.124,2.124,0,0,0-2.2-2.7,3.3,3.3,0,0,0-3.2,2.8,2.082,2.082,0,0,0,2.2,2.6m3.4.6h-.9l.2-1.2h0a3.572,3.572,0,0,1-2.8,1.3,2.783,2.783,0,0,1-2.9-3.5,4.315,4.315,0,0,1,4.2-3.5,2.826,2.826,0,0,1,2.4,1.3h0l.7-3.5h.8Z" fill="#fff"/><path id="5d86cdfb-e92f-40e6-b0a3-14564b11b809" data-name="&lt;Path&gt;" d="M134.1,38.8c-.2,1.3.6,1.4.9,1.4a1.508,1.508,0,0,0,1.5-1.2c.2-.9-.6-1.1-1.1-1.3-.6-.2-1.7-.6-1.4-1.9a2.357,2.357,0,0,1,2.2-1.9,1.464,1.464,0,0,1,1.5,1.8h-.9c.1-.8-.4-1.1-.8-1.1a1.2,1.2,0,0,0-1.2,1c-.1.7.5,1,1,1.1.7.3,1.8.7,1.5,2.1a2.5,2.5,0,0,1-2.5,2.1,1.639,1.639,0,0,1-1.7-2.1Z" fill="#fff"/><path id="8a86240c-0fa3-400c-b766-40701ababed9" data-name="&lt;Compound Path&gt;" d="M144.8,40.2a3.26,3.26,0,0,0,3.1-2.8,2.2,2.2,0,0,0-2.1-2.7,3.341,3.341,0,0,0-3.1,2.8,2.147,2.147,0,0,0,2.1,2.7m1.1-6.3a2.8,2.8,0,0,1,2.8,3.5,4.38,4.38,0,0,1-4.1,3.5,2.762,2.762,0,0,1-2.8-3.4,4.52,4.52,0,0,1,4.1-3.6" fill="#fff"/><path id="6d80c378-115e-4315-877b-f20d09bfa35d" data-name="&lt;Path&gt;" d="M150.7,34.1h.9l-.2.8h0a2.853,2.853,0,0,1,2.2-1,2.438,2.438,0,0,1,2,.8A2.773,2.773,0,0,1,156,37l-.7,3.7h-.9l.7-3.7a1.914,1.914,0,0,0-.3-1.8,1.7,1.7,0,0,0-1.3-.6,2.462,2.462,0,0,0-1.6.6,3.867,3.867,0,0,0-1,1.8l-.7,3.7h-.9Z" fill="#fff"/><path id="16d291e7-097c-46ee-b90c-a00bb27dbc0b" data-name="&lt;Path&gt;" d="M161.9,31.8h.9l-.6,3.2h0a2.853,2.853,0,0,1,2.2-1,2.438,2.438,0,0,1,2,.8,2.773,2.773,0,0,1,.4,2.3l-.7,3.7h-.9l.7-3.7a1.914,1.914,0,0,0-.3-1.8,1.7,1.7,0,0,0-1.3-.6,2.462,2.462,0,0,0-1.6.6,3.867,3.867,0,0,0-1,1.8l-.7,3.7h-.8Z" fill="#fff"/><path id="23b80964-9bf5-4141-948c-3683174b61cd" data-name="&lt;Compound Path&gt;" d="M174.1,37a2.123,2.123,0,0,0-2.2-2.3,3.289,3.289,0,0,0-3,2.3Zm-5.3.8a2.08,2.08,0,0,0,2.1,2.4,3.112,3.112,0,0,0,2.7-1.6h.9a4.431,4.431,0,0,1-3.7,2.3,2.769,2.769,0,0,1-2.8-3.5,4.457,4.457,0,0,1,4.1-3.5,2.892,2.892,0,0,1,2.7,1.7,3.066,3.066,0,0,1,.1,2.1h-6.1Z" fill="#fff"/><path id="5124ef7e-d456-4a10-88bc-8a72eed04ca1" data-name="&lt;Compound Path&gt;" d="M179,40.2a3.5,3.5,0,0,0,3.2-2.7,2.124,2.124,0,0,0-2.2-2.7,3.3,3.3,0,0,0-3.2,2.8,2.082,2.082,0,0,0,2.2,2.6m3.3.6h-.9l.2-1.2h0a3.572,3.572,0,0,1-2.8,1.3,2.783,2.783,0,0,1-2.9-3.5,4.315,4.315,0,0,1,4.2-3.5,2.381,2.381,0,0,1,2.3,1.3h0l.2-1.2h.9Z" fill="#fff"/><polygon id="de56a752-3cef-4e10-a975-c0b6aff5845b" data-name="&lt;Path&gt;" points="185.5 31.8 186.4 31.8 184.7 40.8 183.9 40.8 185.5 31.8" fill="#fff"/><polygon id="0dc778c3-b006-4b8e-ade0-a412d94457c3" data-name="&lt;Path&gt;" points="188.2 34.9 186.8 34.9 186.9 34.1 188.3 34.1 188.8 31.8 189.6 31.8 189.2 34.1 190.8 34.1 190.6 34.9 189 34.9 188 40.8 187.1 40.8 188.2 34.9" fill="#fff"/><path id="60b61e41-f709-4f0a-9898-df8493695051" data-name="&lt;Path&gt;" d="M192.1,31.8h.9l-.6,3.2h0a2.853,2.853,0,0,1,2.2-1,2.438,2.438,0,0,1,2,.8,2.773,2.773,0,0,1,.4,2.3l-.7,3.7h-.8l.7-3.7a1.914,1.914,0,0,0-.3-1.8,1.7,1.7,0,0,0-1.3-.6,2.462,2.462,0,0,0-1.6.6,3.867,3.867,0,0,0-1,1.8l-.7,3.7h-.9Z" fill="#fff"/><path id="ad3c8e48-d1a9-4713-b5cc-ff34f6cb772c" data-name="&lt;Compound Path&gt;" d="M196.6,1.6v1h.8a.749.749,0,0,0,.5-.1.52.52,0,0,0,.2-.4c0-.2,0-.3-.1-.4a.749.749,0,0,0-.5-.1Zm-.5-.4h1.3a1.483,1.483,0,0,1,.7.1l.3.3a.749.749,0,0,1,.1.5c0,.2,0,.3-.1.4,0,.1-.2.2-.3.3.1.1.2.2.3.2a4.331,4.331,0,0,1,.1.5v.4c0,.2,0,.3.1.4l.1.1h-.6a4.331,4.331,0,0,1-.1-.5V3.5a.367.367,0,0,0-.1-.3c0-.1-.1-.1-.2-.1h-1.2V4.4H196V1.2Zm3.5,1.6a2.663,2.663,0,0,0-.3-1.2,1.962,1.962,0,0,0-.9-.9,2.55,2.55,0,0,0-2.4,0,1.962,1.962,0,0,0-.9.9,2.663,2.663,0,0,0-.3,1.2,2.663,2.663,0,0,0,.3,1.2,1.962,1.962,0,0,0,.9.9,2.55,2.55,0,0,0,2.4,0,1.962,1.962,0,0,0,.9-.9,2.663,2.663,0,0,0,.3-1.2m.4,0a2.3,2.3,0,0,1-.4,1.4,2.41,2.41,0,0,1-1,1,2.65,2.65,0,0,1-2.8,0,3.178,3.178,0,0,1-1-1,2.3,2.3,0,0,1-.4-1.4,2.3,2.3,0,0,1,.4-1.4,3.178,3.178,0,0,1,1-1,3.255,3.255,0,0,1,1.4-.4,2.3,2.3,0,0,1,1.4.4,2.41,2.41,0,0,1,1,1,2.3,2.3,0,0,1,.4,1.4" fill="#fff"/></g></g></svg>